<svg xml:space="preserve" xmlns="http://www.w3.org/2000/svg" viewBox="0 0 37.642 33.292"><path fill="#93cc17" d="M32.87 20.395c-3.093 7.842-12.006 11.709-19.908 8.643C3.264 25.268-1.521 14.414 2.274 4.79l-.065.306-.082.379-.053.24c-.016.088-.031.182-.048.282l-.112.664-.096.801c-.021.144-.027.296-.04.452l-.033.481-.01.125c0 .043 0 .086-.002.129l-.006.262-.012.544.015.573.007.297.023.304c.016.204.028.413.048.626l.08.65c.124.884.315 1.826.609 2.807a17.705 17.705 0 0 0 3.14 5.986 17.457 17.457 0 0 0 2.702 2.707c.13.102.263.201.395.303.066.051.13.102.198.152.068.047.138.094.206.143l.413.287c.14.093.286.18.429.271.282.187.587.345.884.515l.11.063.117.057.232.115c.077.039.155.078.232.115.078.039.154.079.235.112.159.069.319.142.479.211l.12.056.06.024.062.022c.082.03.165.063.247.094.166.063.329.131.496.189.169.057.337.11.508.168.084.026.169.055.253.084.083.021.167.045.25.065l.249.069.125.033.126.026.507.11c.17.029.34.06.513.088 1.375.201 2.803.197 4.21-.064a12.57 12.57 0 0 0 4.056-1.515 12.147 12.147 0 0 0 3.338-2.882 11.79 11.79 0 0 0 1.229-1.873c.177-.331.336-.676.483-1.024l.105-.266.054-.134c.02-.045.029-.084.045-.127.055-.168.119-.332.16-.504a8.517 8.517 0 0 0 .344-2.078l.01-.266-.003-.267v-.132c0-.045-.005-.09-.007-.133l-.016-.269a8.958 8.958 0 0 0-1.944-4.886c-.025-.034-.054-.067-.083-.102l-.086-.101-.084-.091a6.869 6.869 0 0 0-.087-.1c-.123-.125-.235-.26-.365-.377l-.188-.182-.197-.164-.098-.087c-.032-.031-.068-.055-.102-.084l-.203-.162-.051-.041-.053-.038-.106-.076c-.071-.05-.14-.104-.211-.153l-.22-.143-.108-.071a4.149 4.149 0 0 0-.113-.065l-.225-.133-.056-.033-.06-.027-.114-.063-.232-.121-.238-.107c-.163-.081-.304-.131-.451-.191a4.526 4.526 0 0 0-.222-.08l-.111-.041-.112-.031a6.414 6.414 0 0 0-1.14-.248l-.232-.026c-.038-.004-.077-.01-.115-.012L22.07 7.2c-.078-.003-.156-.013-.233-.011a7.43 7.43 0 0 0-.931.043 7.047 7.047 0 0 0-3.413 1.367 7.033 7.033 0 0 0-1.31 1.275c-.025.029-.048.061-.07.091l-.067.095-.068.092-.035.045-.031.049c-.083.127-.172.252-.247.386-.038.065-.08.132-.116.197a6.495 6.495 0 0 0-.104.203l-.054.102-.044.095c-.028.063-.063.125-.088.188a5.89 5.89 0 0 0-.273.774l-.05.199-.04.2c-.016.067-.022.136-.034.203-.01.067-.022.136-.027.203a5.187 5.187 0 0 0-.027.817c.005.068.004.14.01.207l.02.205c.007.065.02.135.029.203.005.032.008.067.015.103l.02.101c.022.137.059.268.09.402.04.131.073.265.122.393.042.133.095.258.145.387l.084.187c.015.031.027.063.043.095l.047.092c.033.061.06.123.095.182.034.061.068.117.103.177.034.06.073.115.109.173l.055.088.06.082c.039.058.078.11.118.168l.126.157c.04.056.086.104.13.156.045.05.087.104.134.151.094.098.186.196.286.287.096.098.2.182.302.271.21.168.426.331.656.471.058.035.113.073.172.104l.177.1c.029.016.059.034.087.048l.083.044c.056.024.11.06.168.08.225.108.458.188.694.26a5.09 5.09 0 0 0 2.877-.035 5.407 5.407 0 0 0 2.344-1.448c.309-.324.569-.683.786-1.056.026-.045.057-.092.08-.139.024-.046.048-.091.07-.136.027-.045.046-.093.067-.138.02-.047.044-.092.063-.139.036-.094.078-.187.107-.279.016-.047.033-.094.048-.142l.04-.142a4.7 4.7 0 0 0 .074-2.19 5.114 5.114 0 0 0-1.167-2.346c-.082-.087-.156-.175-.236-.25l-.114-.113a5.691 5.691 0 0 0-.84-.652c-.088-.056-.157-.094-.203-.121a.86.86 0 0 1-.067-.038c2.836 1.103 4.235 4.276 3.125 7.092-1.363 3.455-5.291 5.16-8.773 3.808-4.274-1.658-6.382-6.443-4.71-10.685 2.056-5.206 7.973-7.772 13.218-5.736 6.437 2.497 9.613 9.704 7.093 16.093z"/><path fill="#7abc00" d="M37.64 15.714v.509c-.01.17-.018.338-.026.508a15.53 15.53 0 0 1-.746 3.946c-.097.317-.218.626-.335.935-.03.076-.058.158-.09.229l-.094.218-.191.433a18.371 18.371 0 0 1-3.064 4.67 18.543 18.543 0 0 1-12.3 6.073 18.145 18.145 0 0 1-6.365-.631c-.247-.076-.493-.149-.737-.226-.242-.083-.48-.172-.717-.258l-.178-.063c-.06-.022-.116-.05-.174-.072-.116-.049-.231-.099-.347-.146l-.343-.146-.327-.156-.644-.314c-.211-.108-.418-.228-.625-.341l-.308-.172-.077-.043-.075-.046-.15-.094-.59-.368c-.1-.06-.192-.128-.287-.191-.095-.065-.188-.132-.283-.196l-.28-.195-.14-.1-.134-.104c-.357-.278-.716-.546-1.046-.844-.167-.146-.335-.285-.497-.435-.158-.151-.315-.302-.472-.45l-.232-.225-.221-.232-.436-.465c-.074-.076-.14-.158-.208-.236l-.203-.238-.201-.237-.1-.116c-.033-.041-.063-.082-.095-.121l-.373-.487c-.061-.081-.125-.16-.182-.241a109.745 109.745 0 0 1-.51-.74c-.11-.164-.21-.334-.313-.498l-.153-.248c-.05-.082-.103-.162-.147-.248a65.69 65.69 0 0 1-.276-.502A19.681 19.681 0 0 1 .73 18.849a18.972 18.972 0 0 1-.656-6.904l.076-.715c.032-.23.07-.456.105-.677l.052-.324.066-.313.13-.6c.049-.192.1-.379.149-.562l.072-.264.035-.132.042-.125c.056-.166.108-.327.159-.481.053-.153.098-.305.156-.442l.306-.777.286-.627c.043-.095.082-.183.122-.263l.117-.226.182-.344c.09-.171.14-.265.148-.277-3.795 9.624.99 20.479 10.688 24.246 7.902 3.067 16.815-.799 19.908-8.642 2.52-6.39-.656-13.596-7.094-16.096-5.245-2.037-11.162.529-13.215 5.733-1.673 4.241.436 9.024 4.709 10.687 3.482 1.353 7.41-.353 8.773-3.808 1.11-2.815-.29-5.99-3.125-7.095.006.003.032.01.076.021.05.017.129.032.23.063.202.062.502.16.879.351l.145.074c.049.026.099.056.15.086.104.058.207.127.318.198.217.146.447.324.68.541a5.915 5.915 0 0 1 1.744 3.086c.1.475.158.988.132 1.533l-.01.205c-.005.069-.014.14-.02.207-.012.143-.037.279-.06.422-.01.07-.027.143-.041.215-.016.068-.03.143-.05.214l-.055.214c-.02.073-.043.143-.065.211a7.68 7.68 0 0 1-.757 1.684 7.944 7.944 0 0 1-1.264 1.584l-.194.182c-.065.063-.135.117-.203.176-.136.12-.282.229-.428.342-.074.055-.15.105-.227.158l-.115.08-.12.076c-.08.049-.16.1-.24.148l-.25.141c-.337.181-.692.35-1.066.486a8.316 8.316 0 0 1-1.17.344 8.486 8.486 0 0 1-3.904-.067c-.112-.023-.221-.061-.333-.091l-.167-.048c-.055-.02-.105-.035-.16-.055-.104-.037-.21-.07-.317-.107-.106-.036-.21-.081-.315-.121a10.078 10.078 0 0 1-1.247-.598c-.202-.117-.407-.234-.602-.368-.201-.128-.392-.271-.586-.413-.097-.072-.188-.15-.283-.229-.094-.076-.19-.15-.28-.233l-.271-.245a16.226 16.226 0 0 1-.263-.262l-.131-.131-.126-.139c-.083-.092-.17-.182-.25-.277-.078-.098-.16-.191-.24-.291-.08-.098-.152-.198-.23-.301l-.113-.152c-.038-.051-.072-.104-.108-.156a19.53 19.53 0 0 1-.213-.318c-.133-.219-.27-.438-.39-.668-.126-.227-.235-.465-.346-.701-.103-.242-.208-.484-.295-.736l-.067-.188c-.022-.063-.041-.127-.061-.19-.04-.127-.081-.256-.116-.385L9.425 15c-.033-.132-.058-.267-.086-.397a10.529 10.529 0 0 1-.196-1.646c-.01-.142-.008-.279-.01-.42 0-.142 0-.283.008-.425a20.6 20.6 0 0 1 .022-.426l.042-.427c.069-.565.176-1.137.334-1.696.037-.143.084-.278.127-.418l.066-.209.072-.197.147-.396c.05-.131.109-.26.165-.389.108-.265.238-.517.365-.772l.048-.097.05-.096.106-.188.105-.189a13.09 13.09 0 0 1 2.331-2.936c.215-.211.447-.402.678-.601.117-.097.238-.188.358-.282l.182-.141.188-.133c.125-.088.25-.178.377-.264l.39-.246c.13-.084.266-.156.4-.234l.203-.113.102-.057.104-.056c.139-.067.279-.14.418-.21.14-.066.284-.129.427-.191l.215-.097.219-.087.442-.17c.597-.21 1.21-.383 1.84-.518a14.632 14.632 0 0 1 1.928-.254c.163-.012.326-.014.49-.02L22.326 0c.082 0 .165.002.247.004.165.003.33.006.495.012l.495.035c.659.059 1.32.154 1.972.313l.244.057.242.065c.162.046.324.09.484.14.316.104.645.213.934.332l.448.178c.148.063.294.132.44.197l.222.101.11.051.109.057c.144.075.288.146.432.225.072.036.145.073.216.112l.21.123c.143.082.283.164.424.247.139.085.275.177.413.268l.206.135.103.067.1.072a16.077 16.077 0 0 1 2.936 2.666 15.96 15.96 0 0 1 3.824 9.75c.003.085.009.17.01.254z"/></svg>