<svg viewBox="0 0 24 24" fill="none" xmlns="http://www.w3.org/2000/svg">
    <path d="M10.5 10.013a1.5 1.5 0 100-3 1.5 1.5 0 000 3z" fill="currentColor" />
    <path d="M8.5 15.013a1.5 1.5 0 100-3 1.5 1.5 0 000 3z" fill="currentColor" />
    <path d="M15 16.013a1 1 0 100-2 1 1 0 000 2z" fill="currentColor" />
    <path fill="currentColor"
        d="M21.95 11.003c-1.79-.03-3.7-1.95-2.68-4.22-2.97 1-5.78-1.59-5.19-4.56C7.11.753 2 6.423 2 12.013c0 5.52 4.48 10 10 10 5.89 0 10.54-5.08 9.95-11.01zM12 20.013c-4.41 0-8-3.59-8-8 0-3.31 2.73-8.18 8.08-8.02.42 2.54 2.44 4.56 4.99 4.94.07.36.52 2.55 2.92 3.63-.29 4.31-3.93 7.45-7.99 7.45z" />
</svg>