<svg xmlns="http://www.w3.org/2000/svg" viewBox="0 0 25 25" fill="currentColor">
    <path
        d="M16.666 7l-.44.55c-.42.52-.98.75-1.54.75-1.02 0-2.02-.78-2.02-2V3s-8 4-8 11c0 4.42 3.58 8 8 8s8-3.58 8-8c0-2.96-1.61-5.62-4-7zm-4 13c-1.1 0-2-.87-2-1.94 0-.51.2-.99.58-1.36l1.42-1.4 1.43 1.4c.37.37.57.85.57 1.36 0 1.07-.9 1.94-2 1.94zm3.96-1.5c.04-.36.22-1.89-1.13-3.22l-2.83-2.78-2.83 2.78c-1.36 1.34-1.17 2.88-1.13 3.22a5.982 5.982 0 01-2.04-4.5c0-3.16 2.13-5.65 4.03-7.25a4.024 4.024 0 003.99 3.55c.78 0 1.54-.23 2.18-.66a6.175 6.175 0 011.8 4.36c0 1.79-.79 3.4-2.04 4.5z" />
</svg>