<svg xmlns="http://www.w3.org/2000/svg" width="24" height="24" viewBox="0 0 24 24" fill="none">
    <path
        d="M19.4322 12.98C19.4722 12.66 19.5022 12.34 19.5022 12C19.5022 11.66 19.4722 11.34 19.4322 11.02L21.5422 9.37C21.7322 9.22 21.7822 8.95 21.6622 8.73L19.6622 5.27C19.5722 5.11 19.4022 5.02 19.2222 5.02C19.1622 5.02 19.1022 5.03 19.0522 5.05L16.5622 6.05C16.0422 5.65 15.4822 5.32 14.8722 5.07L14.4922 2.42C14.4622 2.18 14.2522 2 14.0022 2H10.0022C9.75221 2 9.54221 2.18 9.51221 2.42L9.13221 5.07C8.52221 5.32 7.96221 5.66 7.44221 6.05L4.95221 5.05C4.89221 5.03 4.83221 5.02 4.77221 5.02C4.60221 5.02 4.43221 5.11 4.34221 5.27L2.34221 8.73C2.21221 8.95 2.27221 9.22 2.46221 9.37L4.57221 11.02C4.53221 11.34 4.50221 11.67 4.50221 12C4.50221 12.33 4.53221 12.66 4.57221 12.98L2.46221 14.63C2.27221 14.78 2.22221 15.05 2.34221 15.27L4.34221 18.73C4.43221 18.89 4.60221 18.98 4.78221 18.98C4.84221 18.98 4.90221 18.97 4.95221 18.95L7.44221 17.95C7.96221 18.35 8.52221 18.68 9.13221 18.93L9.51221 21.58C9.54221 21.82 9.75221 22 10.0022 22H14.0022C14.2522 22 14.4622 21.82 14.4922 21.58L14.8722 18.93C15.4822 18.68 16.0422 18.34 16.5622 17.95L19.0522 18.95C19.1122 18.97 19.1722 18.98 19.2322 18.98C19.4022 18.98 19.5722 18.89 19.6622 18.73L21.6622 15.27C21.7822 15.05 21.7322 14.78 21.5422 14.63L19.4322 12.98ZM17.4522 11.27C17.4922 11.58 17.5022 11.79 17.5022 12C17.5022 12.21 17.4822 12.43 17.4522 12.73L17.3122 13.86L18.2022 14.56L19.2822 15.4L18.5822 16.61L17.3122 16.1L16.2722 15.68L15.3722 16.36C14.9422 16.68 14.5322 16.92 14.1222 17.09L13.0622 17.52L12.9022 18.65L12.7022 20H11.3022L10.9522 17.52L9.89221 17.09C9.46221 16.91 9.06221 16.68 8.66221 16.38L7.75221 15.68L6.69221 16.11L5.42221 16.62L4.72221 15.41L5.80221 14.57L6.69221 13.87L6.55221 12.74C6.52221 12.43 6.50221 12.2 6.50221 12C6.50221 11.8 6.52221 11.57 6.55221 11.27L6.69221 10.14L5.80221 9.44L4.72221 8.6L5.42221 7.39L6.69221 7.9L7.73221 8.32L8.63221 7.64C9.06221 7.32 9.47221 7.08 9.88221 6.91L10.9422 6.48L11.1022 5.35L11.3022 4H12.6922L13.0422 6.48L14.1022 6.91C14.5322 7.09 14.9322 7.32 15.3322 7.62L16.2422 8.32L17.3022 7.89L18.5722 7.38L19.2722 8.59L18.2022 9.44L17.3122 10.14L17.4522 11.27ZM12.0022 8C9.79221 8 8.00221 9.79 8.00221 12C8.00221 14.21 9.79221 16 12.0022 16C14.2122 16 16.0022 14.21 16.0022 12C16.0022 9.79 14.2122 8 12.0022 8ZM12.0022 14C10.9022 14 10.0022 13.1 10.0022 12C10.0022 10.9 10.9022 10 12.0022 10C13.1022 10 14.0022 10.9 14.0022 12C14.0022 13.1 13.1022 14 12.0022 14Z"
        fill="currentColor" />
</svg>