<svg xmlns="http://www.w3.org/2000/svg" viewBox="0 0 24 24" fill="currentColor">
    <path fill-rule="evenodd" clip-rule="evenodd"
        d="M15.97 16.81c.53-.5 1.24-.81 2.03-.81 1.66 0 3 1.34 3 3s-1.34 3-3 3-3-1.34-3-3c0-.24.04-.47.09-.69l-7.05-4.12c-.54.5-1.25.81-2.04.81-1.66 0-3-1.34-3-3s1.34-3 3-3c.79 0 1.5.31 2.04.81l7.05-4.11c-.05-.22-.09-.46-.09-.7 0-1.66 1.34-3 3-3s3 1.34 3 3-1.34 3-3 3c-.79 0-1.51-.31-2.04-.81L8.91 11.3c.05.23.09.46.09.7 0 .24-.04.47-.09.7l7.06 4.11zM19 5c0-.55-.45-1-1-1s-1 .45-1 1 .45 1 1 1 1-.45 1-1zM6 13c-.55 0-1-.45-1-1s.45-1 1-1 1 .45 1 1-.45 1-1 1zm11 6c0 .55.45 1 1 1s1-.45 1-1-.45-1-1-1-1 .45-1 1z" />
</svg>