<svg viewBox="0 0 512 512" xmlns="http://www.w3.org/2000/svg" fill="currentColor">
  <path
    d="M182.024 362h-105c-8.284 0-15 6.716-15 15s6.716 15 15 15h105c8.284 0 15-6.716 15-15s-6.716-15-15-15zM182.024 302h-105c-8.284 0-15 6.716-15 15s6.716 15 15 15h105c8.284 0 15-6.716 15-15s-6.716-15-15-15zM182.024 242h-105c-8.284 0-15 6.716-15 15s6.716 15 15 15h105c8.284 0 15-6.716 15-15s-6.716-15-15-15zM77.024 182h210c8.284 0 15-6.716 15-15s-6.716-15-15-15h-210c-8.284 0-15 6.716-15 15s6.716 15 15 15z" />
  <path
    d="M511.976 150.421c0-2.83-.429-27.85-15-42.42-14.578-14.578-39.614-15-42.425-15h-.001l-.013.001c-3.769.003-7.714 1.513-10.592 4.391l-.002.002-51.92 50.968V15c0-8.284-6.716-15-15-15h-45c-8.284 0-15 6.716-15 15 0 8.271-6.729 15-15 15s-15-6.729-15-15c0-8.284-6.716-15-15-15h-45c-8.284 0-15 6.716-15 15 0 8.271-6.729 15-15 15s-15-6.729-15-15c0-8.284-6.716-15-15-15h-45c-8.284 0-15 6.716-15 15 0 8.271-6.729 15-15 15s-15-6.729-15-15c0-8.284-6.716-15-15-15h-47A15 15 0 00.024 15v422c0 41.355 33.645 75 75 75h332c24.813 0 45-20.187 45-45v-90c0-8.284-6.716-15-15-15h-45v-86.36c123.545-123.545 46.402-46.067 115.556-114.604 2.864-2.862 4.398-6.799 4.396-10.615zm-30.474-5.733l-37.51 36.559-21.214-21.214 37.514-36.562c5.54.788 12.336 2.608 15.471 5.742 3.037 3.038 4.922 9.726 5.739 15.475zM299.916 325.322a75.368 75.368 0 01-29.315 18.118l-15.023 5.008 5.008-15.024a75.378 75.378 0 0118.117-29.315l122.863-122.863 21.214 21.214c-13.382 13.38-107.689 107.686-122.864 122.862zM422.024 467c0 8.271-6.729 15-15 15s-15-6.729-15-15v-75h30zm-60 0a44.79 44.79 0 002.58 15H75.024c-24.813 0-45-20.187-45-45V30h19.57c6.19 17.461 22.873 30 42.43 30s36.239-12.539 42.43-30h20.141c6.19 17.461 22.873 30 42.43 30s36.239-12.539 42.43-30h20.141c6.19 17.461 22.873 30 42.43 30s36.239-12.539 42.43-30h17.57v148.361L257.488 282.896c-11.466 11.467-20.237 25.66-25.364 41.042l-14.495 43.484a14.998 14.998 0 003.624 15.35 14.998 14.998 0 0015.35 3.624l43.484-14.495c15.384-5.128 29.575-13.899 41.042-25.365l40.896-40.895L362.024 467z" />
</svg>