<svg viewBox="0 0 512 512" xmlns="http://www.w3.org/2000/svg"><g><path d="m182.024 362h-105c-8.284 0-15 6.716-15 15s6.716 15 15 15h105c8.284 0 15-6.716 15-15s-6.716-15-15-15z"/><path d="m182.024 302h-105c-8.284 0-15 6.716-15 15s6.716 15 15 15h105c8.284 0 15-6.716 15-15s-6.716-15-15-15z"/><path d="m182.024 242h-105c-8.284 0-15 6.716-15 15s6.716 15 15 15h105c8.284 0 15-6.716 15-15s-6.716-15-15-15z"/><path d="m77.024 182h210c8.284 0 15-6.716 15-15s-6.716-15-15-15h-210c-8.284 0-15 6.716-15 15s6.716 15 15 15z"/><path d="m511.976 150.421c0-2.83-.429-27.85-15-42.42-14.578-14.578-39.614-15-42.425-15 0 0 0 0-.001 0-.004 0-.009.001-.013.001-3.769.003-7.714 1.513-10.592 4.391-.001.001-.001.001-.002.002l-51.92 50.968v-133.363c0-8.284-6.716-15-15-15h-45c-8.284 0-15 6.716-15 15 0 8.271-6.729 15-15 15s-15-6.729-15-15c0-8.284-6.716-15-15-15h-45c-8.284 0-15 6.716-15 15 0 8.271-6.729 15-15 15s-15-6.729-15-15c0-8.284-6.716-15-15-15h-45c-8.284 0-15 6.716-15 15 0 8.271-6.729 15-15 15s-15-6.729-15-15c0-8.284-6.716-15-15-15h-47c-3.977 0-7.793 1.581-10.605 4.393-2.814 2.814-4.394 6.629-4.394 10.607v422c0 41.355 33.645 75 75 75h332c24.813 0 45-20.187 45-45v-90c0-8.284-6.716-15-15-15h-45v-86.36c123.545-123.545 46.402-46.067 115.556-114.604 2.864-2.862 4.398-6.799 4.396-10.615zm-30.474-5.733-37.51 36.559c-22.454-22.454-20.704-20.704-21.214-21.214l37.514-36.562c5.54.788 12.336 2.608 15.471 5.742 3.037 3.038 4.922 9.726 5.739 15.475zm-181.586 180.634c-8.19 8.191-18.328 14.456-29.315 18.118l-15.023 5.008 5.008-15.024c3.662-10.987 9.927-21.125 18.117-29.315l122.863-122.863c22.454 22.454 20.704 20.704 21.214 21.214-13.382 13.38-107.689 107.686-122.864 122.862zm122.108 141.678c0 8.271-6.729 15-15 15s-15-6.729-15-15v-75h30zm-60 0c0 5.258.915 10.305 2.58 15h-289.58c-24.813 0-45-20.187-45-45v-407h19.57c6.19 17.461 22.873 30 42.43 30s36.239-12.539 42.43-30h20.141c6.19 17.461 22.873 30 42.43 30s36.239-12.539 42.43-30h20.141c6.19 17.461 22.873 30 42.43 30s36.239-12.539 42.43-30h17.57v148.361l-104.538 104.535c-11.466 11.467-20.237 25.66-25.364 41.042l-14.495 43.484c-1.797 5.39-.394 11.333 3.624 15.35 4.031 4.032 9.979 5.415 15.35 3.624l43.484-14.495c15.384-5.128 29.575-13.899 41.042-25.365l40.896-40.895c-.001 33.859-.001 127.472-.001 161.359z"/></g></svg>