<svg xmlns="http://www.w3.org/2000/svg" viewBox="0 0 512 512">
  <path xmlns="http://www.w3.org/2000/svg" fill="currentColor"
    d="M506.14 241.86c-13.421-13.423-226.16-226.16-236-236-7.808-7.813-20.472-7.813-28.28 0-10.762 10.761-222.801 222.796-236 236-7.813 7.808-7.813 20.472 0 28.285 7.808 7.808 20.472 7.808 28.28 0l5.192-5.192V492c0 11.047 8.957 20 20 20h393.336c11.043 0 20-8.953 20-20V264.953l5.187 5.192c7.813 7.808 20.477 7.808 28.286 0 7.812-7.813 7.812-20.477 0-28.286zM314.669 472H197.336V354.668h117.332zm118 0h-78V334.668c0-11.047-8.953-20-20-20H177.336c-11.047 0-20 8.953-20 20V472h-78V224.953L256 48.285l176.668 176.668zm0 0"
    data-original="#000000" />
</svg>