<svg xmlns="http://www.w3.org/2000/svg" viewBox="0 0 512.021 512.021">
  <g xmlns="http://www.w3.org/2000/svg">
    <path
      d="M241.857 361.869l28.286 28.284 134.141-134.142-134.141-134.142-28.286 28.284 85.859 85.858H0v40h327.716z" />
    <path
      d="M452.021.01h-392c-33.084 0-60 26.916-60 60v96h40v-96c0-11.028 8.972-20 20-20h392c11.028 0 20 8.972 20 20v392c0 11.028-8.972 20-20 20h-392c-11.028 0-20-8.972-20-20v-96h-40v96c0 33.084 26.916 60 60 60h392c33.084 0 60-26.916 60-60v-392c0-33.084-26.917-60-60-60z" />
  </g>
</svg>