<svg xmlns="http://www.w3.org/2000/svg" fill="currentColor" viewBox="0 0 512 512">
  <path
    d="M487.104 24.954c-33.274-33.269-87.129-33.273-120.407 0L51.948 339.665a20.264 20.264 0 00-4.831 7.817L1.057 485.647c-5.2 15.598 9.679 30.503 25.298 25.296l138.182-46.055a20.281 20.281 0 007.819-4.831l314.748-314.711c33.195-33.192 33.195-87.2 0-120.392zM51.654 460.352l23.177-69.525 46.356 46.35-69.533 23.175zm106.56-42.718l-63.837-63.829 267.272-267.24 63.837 63.83-267.272 267.239zm300.604-300.569l-5.049 5.049-63.837-63.83 5.049-5.048c17.602-17.597 46.239-17.597 63.837 0 17.601 17.597 17.601 46.231 0 63.829z" />
</svg>