<svg xmlns="http://www.w3.org/2000/svg" viewBox="0 0 512 512" fill="currentColor">
  <path xmlns="http://www.w3.org/2000/svg"
    d="M375 422c8.285 0 15-6.715 15-15V15c0-8.285-6.715-15-15-15H45C20.187 0 0 20.188 0 45v392c0 24.813 20.188 45 45 45h75v15a14.998 14.998 0 0023.32 12.48L180 485.027l36.68 24.453A15 15 0 00240 497v-15h135c8.285 0 15-6.715 15-15s-6.715-15-15-15h-15v-30zm-15-30H90V30h270zM45 30h15v362H45c-5.258 0-10.305.914-15 2.578V45c0-8.27 6.73-15 15-15zm0 422c-8.27 0-15-6.73-15-15s6.73-15 15-15h75v30zm165 16.973l-21.68-14.453a14.998 14.998 0 00-16.64 0L150 468.973V422h60zM240 422h90v30h-90zm0 0" />
  <path xmlns="http://www.w3.org/2000/svg"
    d="M150 232.973V317c0 8.285 6.715 15 15 15h120c8.285 0 15-6.715 15-15v-84.027c18.297-10.578 30-30.313 30-51.973 0-30.719-23.203-56.121-53.008-59.594C266.477 102.867 246.722 91 225 91s-41.477 11.867-51.992 30.406C143.203 124.88 120 150.281 120 181c0 21.66 11.703 41.395 30 51.973zm29.508-81.97c.539.075 1.328.185 2.281.24a14.971 14.971 0 0015.047-10.04C201.046 129.117 212.363 121 225 121s23.953 8.117 28.164 20.203a14.999 14.999 0 0015.047 10.04c.953-.055 1.742-.165 2.281-.24C286.81 151.27 300 164.622 300 181c0 12.66-7.996 24.004-19.902 28.258-6.98 2.496-14.825 2.328-21.77-.61-7.633-3.226-16.433.344-19.66 7.973-3.227 7.633.344 16.434 7.973 19.66A59.717 59.717 0 00270 241v61h-90v-61a59.65 59.65 0 0023.36-4.723c7.628-3.226 11.199-12.027 7.972-19.656-3.227-7.629-12.027-11.2-19.66-7.973-6.934 2.934-14.781 3.11-21.77.61C157.996 205.004 150 193.66 150 181c0-16.379 13.191-29.73 29.508-29.996zm0 0" />
</svg>