<svg xmlns="http://www.w3.org/2000/svg" viewBox="0 0 64 64">
  <path d="M55.5 52.5v10h-4v-10z" fill="#0092db" />
  <path d="M51.5 57.5v5H14.501c-2.76 0-5-2.24-5-5s2.24-5 5-5H51.5z" fill="#e6e9ed" />
  <path d="M15.5.5v52h-2c-2.76 0-5 2.24-5 5v-52c0-2.76 2.24-5 5-5z" fill="#656d78" />
  <path d="M15.5.5v52h40v-51l-1.001-1z" fill="#00aaff" />
  <path d="M54.499 53.5H14.501a1 1 0 110-2h39.998a1 1 0 110 2z" fill="#0092db" />
  <path d="M54.499 63.5H14.501a1 1 0 110-2h39.998a1 1 0 110 2z" fill="#0092db" />
  <path d="M14.501 56.502a1 1 0 100 2H51.5v-2z" fill="#ccd1d9" />
  <path d="M14.501 63.5c-3.309 0-6-2.691-6-6s2.691-6 6-6a1 1 0 110 2c-2.206 0-4 1.794-4 4s1.794 4 4 4a1 1 0 110 2z"
    fill="#545c66" />
  <path d="M14.501 51.5h1v2h-1zm0 10h1v2h-1z" fill="#545c66" />
  <path d="M27.5 30.001h16V32h-16z" fill="#ccd1d9" />
  <path
    d="M40.7 12h2.8c2.76 0 5 2.24 5 5s-2.24 5-5 5v8.001h-16V22c-2.76 0-5-2.24-5-5s2.24-5 5-5h2.81c1.03-1.79 2.971-3 5.19-3s4.16 1.21 5.2 3z"
    fill="#e6e9ed" />
  <path d="M42.502 32.998H28.503a1 1 0 110-2h13.999a1 1 0 110 2z" fill="#ccd1d9" />
  <path
    d="M46.499 38.999H24.505a1 1 0 110-2h21.994a1 1 0 110 2zm0 3H24.505a1 1 0 110-2h21.994a1 1 0 110 2zM41.5 45.025H29.504a1 1 0 110-2H41.5a1 1 0 110 2z"
    fill="#0092db" />
  <circle cx="54.5" cy="1.5" fill="#00aaff" r="1" />
</svg>