<svg xmlns="http://www.w3.org/2000/svg" viewBox="0 0 511.999 511.999">
  <g xmlns="http://www.w3.org/2000/svg">
    <path
      d="M506.43 421.537L291.573 49.394c-15.814-27.391-55.327-27.401-71.147 0L5.568 421.537c-15.814 27.391 3.934 61.616 35.574 61.616h429.714c31.629 0 51.394-34.215 35.574-61.616zm-35.574 23.973H41.142a3.416 3.416 0 01-2.975-5.152L253.024 68.215a3.416 3.416 0 015.949 0L473.83 440.357a3.416 3.416 0 01-2.974 5.153z" />
    <path
      d="M255.999 184.991c-10.394 0-18.821 8.427-18.821 18.821v107.89c0 10.394 8.427 18.821 18.821 18.821s18.821-8.427 18.821-18.821v-107.89c.001-10.394-8.426-18.821-18.821-18.821zM255.999 354.975c-10.394 0-18.821 8.427-18.821 18.821v11.239c0 10.394 8.427 18.821 18.821 18.821s18.821-8.427 18.821-18.821v-11.239c.001-10.396-8.426-18.821-18.821-18.821z" />
  </g>
</svg>