<svg xmlns="http://www.w3.org/2000/svg" viewBox="0 0 512 512">
  <path fill="currentColor"
    d="M501.333 341.333h-33.401c.719-3.517 1.401-7.053 1.401-10.667 0-27.875-21.479-50.823-48.771-53.135-9.146-16.031-28.438-24.865-46.458-20.313-15.25-21.542-47.104-28.854-70.125-15.26-17.934-10.577-40.996-8.466-57.624 3.228l-36.897-29.52c-2.208-1.76-5.021-2.521-7.854-2.271a10.663 10.663 0 00-7.146 3.938l-39.962 49.97-8.142-8.168c-2-2-4.729-3.135-7.563-3.135a10.66 10.66 0 00-7.542 3.125l-82.208 82.208H10.667A10.66 10.66 0 000 352c0 41.167 33.5 74.667 74.667 74.667h362.667C478.5 426.667 512 393.167 512 352a10.66 10.66 0 00-10.667-10.667zm-251.729-68.916c9.333-16.521 32.625-21.375 47.667-9.198a10.69 10.69 0 0013.417-.01c15.833-12.813 40.771-6.49 49.021 11.573a10.73 10.73 0 006.229 5.646c2.75.948 5.792.74 8.396-.615 11.833-6.146 25.167-.021 29.375 11.958 1.5 4.271 7.021 6.917 11.646 6.917 17.667.083 32.667 14.125 32.646 31.979 0 3.674-.848 7.232-2.064 10.667H181.333c0-11.76 9.563-21.333 21.333-21.333a10.66 10.66 0 0010.667-10.667c0-16.083 12.146-29.656 28.229-31.563a10.67 10.67 0 008.042-5.354zm-45.146-33.427l25.117 20.103c-18.844 5.88-33.184 21.35-36.721 40.71-1.549.366-3.01.941-4.491 1.473l-18.703-18.762 34.798-43.524zm-65.687 42.77l31.678 31.779C163.986 321.02 160 330.693 160 341.333H79.206l59.565-59.573zm298.562 123.573H74.667c-25.75 0-47.313-18.354-52.271-42.667h467.208c-4.958 24.313-26.521 42.667-52.271 42.667zM128 181.333A10.66 10.66 0 00138.667 192a10.66 10.66 0 0010.667-10.667c0-13.188-3.583-20.344-6.458-26.104-2.438-4.885-4.208-8.417-4.208-16.563 0-8.146 1.771-11.677 4.208-16.563 2.875-5.76 6.458-12.917 6.458-26.104a10.66 10.66 0 00-10.667-10.667A10.662 10.662 0 00128 96c0 8.146-1.771 11.677-4.208 16.563-2.875 5.76-6.458 12.917-6.458 26.104s3.583 20.344 6.458 26.104c2.437 4.885 4.208 8.417 4.208 16.562zm128 0A10.66 10.66 0 00266.667 192a10.66 10.66 0 0010.667-10.667c0-13.188-3.583-20.344-6.458-26.104-2.438-4.885-4.208-8.417-4.208-16.563 0-8.146 1.771-11.677 4.208-16.563 2.875-5.76 6.458-12.917 6.458-26.104a10.66 10.66 0 00-10.667-10.667A10.662 10.662 0 00256 96c0 8.146-1.771 11.677-4.208 16.563-2.875 5.76-6.458 12.917-6.458 26.104s3.583 20.344 6.458 26.104c2.437 4.885 4.208 8.417 4.208 16.562zm128 0c0 5.896 4.771 10.667 10.667 10.667s10.667-4.771 10.667-10.667c0-13.188-3.583-20.344-6.458-26.104-2.438-4.885-4.208-8.417-4.208-16.563 0-8.146 1.771-11.677 4.208-16.563 2.875-5.76 6.458-12.917 6.458-26.104 0-5.896-4.771-10.667-10.667-10.667S384 90.104 384 96c0 8.146-1.771 11.677-4.208 16.563-2.875 5.76-6.458 12.917-6.458 26.104s3.583 20.344 6.458 26.104c2.437 4.885 4.208 8.417 4.208 16.562z" />
</svg>