<svg xmlns="http://www.w3.org/2000/svg" viewBox="0 0 452.698 452.698" fill="currentColor">
  <path
    d="M443.911 156.283l-22.511-22.51c-7.579-7.579-18.372-10.354-28.306-7.94 2.416-9.938-.364-20.729-7.94-28.306l-48.83-48.83a29.958 29.958 0 00-16.215-8.367 29.964 29.964 0 00-8.367-16.215L296.414 8.787c-11.716-11.716-30.711-11.716-42.427 0L100.481 162.294c-11.716 11.715-11.716 30.71 0 42.426l32.694 32.694a14.147 14.147 0 014.078 11.604 14.189 14.189 0 01-6.519 10.461c-97.448 62.117-106.6 71.269-110.509 75.178-26.967 26.967-26.968 70.847 0 97.813 26.967 26.968 70.846 26.968 97.814 0 3.909-3.909 13.062-13.062 75.178-110.509a14.164 14.164 0 0110.451-6.49c4.332-.476 8.565 1 11.615 4.05l32.694 32.694c11.716 11.716 30.711 11.715 42.427 0L443.911 198.71c11.715-11.716 11.715-30.711 0-42.427zm-174.72 174.721l-32.694-32.694c-9.479-9.479-22.776-14.121-36.101-12.658a44.228 44.228 0 00-32.475 20.186c-27.532 43.192-62.214 96.542-71.094 105.421-15.295 15.295-40.093 15.295-55.388 0-15.295-15.295-15.295-40.092 0-55.388 8.879-8.879 62.229-43.561 105.421-71.094 11.31-7.209 18.75-19.152 20.213-32.484s-3.202-26.608-12.685-36.092l-32.694-32.694 23.841-23.841 147.496 147.496-23.84 23.842zm45.073-45.074L166.767 138.434 275.201 30l15.328 15.327-17.119 37.976a3.413 3.413 0 00.697 3.814l.031.03a3.412 3.412 0 003.862.631l37.111-17.868 48.83 48.83-65.291 97.305a3.41 3.41 0 00.421 4.313l.007.007a3.41 3.41 0 004.322.402l96.787-65.782 22.511 22.51L314.264 285.93z" />
  <circle cx="73.846" cy="378.852" r="17.666" />
</svg>