<svg xmlns="http://www.w3.org/2000/svg" viewBox="0 0 64 64">
  <g xmlns="http://www.w3.org/2000/svg">
    <path fill="currentColor"
      d="M31.99 44.904a2 2 0 01-2-2V27.109a2 2 0 014 0v15.795a2 2 0 01-2 2zM31.99 23.11c-.53 0-1.04-.21-1.41-.59-.38-.37-.59-.88-.59-1.41s.21-1.04.59-1.41c.74-.75 2.08-.75 2.82-.01.38.38.59.89.59 1.42 0 .52-.21 1.04-.59 1.41-.37.38-.88.59-1.41.59z" />
    <path fill="currentColor"
      d="M31.923 57.997a25.79 25.79 0 01-6.703-.881C15.856 54.597 8.524 46.84 6.541 37.353 4.52 27.688 8.25 17.528 16.045 11.469c4.506-3.503 10.189-5.433 16.003-5.433 4.025 0 8.022.936 11.56 2.705 8.737 4.371 14.382 13.503 14.382 23.266 0 7.966-3.759 15.644-10.055 20.538-4.522 3.516-10.209 5.452-16.012 5.452zm.126-47.961c-4.929 0-9.741 1.63-13.548 4.591-6.597 5.128-9.755 13.727-8.044 21.907 1.678 8.025 7.881 14.588 15.803 16.719 1.834.493 3.74.744 5.663.744h.001c4.918 0 9.732-1.637 13.557-4.61 5.329-4.142 8.51-10.639 8.51-17.38 0-8.261-4.777-15.989-12.171-19.688-2.986-1.493-6.364-2.283-9.771-2.283z" />
  </g>
</svg>