<svg viewBox="0 0 512 512" xmlns="http://www.w3.org/2000/svg" fill="currentColor">
  <path
    d="M510.182 425.017l-61.539-247.182a60.22 60.22 0 00-58.53-45.744h-74.156c9.438-12.543 15.04-28.128 15.04-44.998 0-41.354-33.643-74.997-74.997-74.997s-74.997 33.643-74.997 74.997c0 16.871 5.603 32.455 15.04 44.998h-73.472a60.246 60.246 0 00-58.492 45.592L1.856 424.864c-9.59 38.09 19.185 75.041 58.492 75.041h391.304c39.201 0 68.012-36.797 58.53-74.888zM211.001 87.092c0-24.813 20.186-44.998 44.998-44.998s44.998 20.186 44.998 44.998S280.812 132.09 256 132.09s-44.999-20.186-44.999-44.998zm240.651 382.815H60.348c-19.74 0-34.225-18.554-29.401-37.718l62.222-247.182a30.283 30.283 0 0129.401-22.917h267.542a30.269 30.269 0 0129.42 22.993l61.539 247.182c4.762 19.125-9.693 37.642-29.419 37.642z" />
  <path
    d="M174.607 313.715l45.944-42.23c6.098-5.606 6.498-15.095.893-21.195-5.605-6.098-15.093-6.499-21.195-.893l-36.168 33.245v-23.638c0-8.284-6.716-14.999-14.999-14.999s-14.999 6.716-14.999 14.999v113.988c0 8.284 6.716 14.999 14.999 14.999s14.999-6.716 14.999-14.999v-27.748l39.95 38.543c5.962 5.752 15.458 5.581 21.209-.38 5.752-5.962 5.582-15.457-.38-21.209zm188.311-12.717h-34.099c-8.284 0-14.999 6.716-14.999 14.999 0 8.284 6.716 14.999 14.999 14.999h17.238c-3.754 14.424-13.521 26.995-32.339 26.995-23.155 0-41.995-18.839-41.995-41.995s18.839-41.995 41.995-41.995c8.418 0 16.534 2.476 23.469 7.163 6.865 4.639 16.19 2.831 20.826-4.032 4.638-6.865 2.832-16.189-4.032-20.826-11.915-8.049-25.837-12.303-40.263-12.303-39.698 0-71.994 32.296-71.994 71.994s32.296 71.994 71.994 71.994c37.8 0 64.2-29.604 64.2-71.994-.001-8.283-6.716-14.999-15-14.999z" />
</svg>